<svg xmlns="http://www.w3.org/2000/svg" viewBox="0 0 32 32" fill="none">
  <rect width="32" height="32" fill="#10b981" rx="6"/>
  <path fill="#fff" d="M16 6c-2.5 0-4.5 2-4.5 4.5 0 .5.1 1 .3 1.4l-3.3 3.3c-.4.4-.4 1 0 1.4.4.4 1 .4 1.4 0l3.3-3.3c.4.2.9.3 1.4.3.5 0 1-.1 1.4-.3l3.3 3.3c.4.4 1 .4 1.4 0 .4-.4.4-1 0-1.4l-3.3-3.3c.2-.4.3-.9.3-1.4 0-2.5-2-4.5-4.5-4.5zm0 2c1.4 0 2.5 1.1 2.5 2.5s-1.1 2.5-2.5 2.5-2.5-1.1-2.5-2.5 1.1-2.5 2.5-2.5z"/>
  <path fill="#fff" d="M8 20c-.6 0-1 .4-1 1v2c0 .6.4 1 1 1s1-.4 1-1v-2c0-.6-.4-1-1-1zm4 0c-.6 0-1 .4-1 1v3c0 .6.4 1 1 1s1-.4 1-1v-3c0-.6-.4-1-1-1zm4 0c-.6 0-1 .4-1 1v4c0 .6.4 1 1 1s1-.4 1-1v-4c0-.6-.4-1-1-1zm4 0c-.6 0-1 .4-1 1v3c0 .6.4 1 1 1s1-.4 1-1v-3c0-.6-.4-1-1-1zm4 0c-.6 0-1 .4-1 1v2c0 .6.4 1 1 1s1-.4 1-1v-2c0-.6-.4-1-1-1z"/>
</svg>
